{"title":"Total Recall 2012 DVDRip XviD Lum1x","uid":7778220,"size":1485359900,"categoryP":"video","categoryS":"movies","magnet":"?xt=urn:btih:65ab8de71dfc4fc4b07ea85ffc2bd88a02929c26&amp;dn=Total+Recall+2012+DVDRip+XviD+Lum1x&amp;tr=udp%3A%2F%2Ftracker.openbittorrent.com%3A80&amp;tr=udp%3A%2F%2Fopen.demonii.com%3A1337&amp;tr=udp%3A%2F%2Ftracker.coppersurfer.tk%3A6969&amp;tr=udp%3A%2F%2Fexodus.desync.com%3A6969","seeders":0,"leechers":1,"uploader":"HeroMaster","files":-1,"time":1351707175,"description":"Total Recall 2012 DVDRip XviD Lum1x\n\n &lt;a href=&quot;\nhttp://www.imdb.com/title/tt1386703/&quot; rel=&quot;nofollow&quot; target=&quot;_NEW&quot;&gt;\nhttp://www.imdb.com/title/tt1386703/&lt;/a&gt;\n\n\nSORS: Total Recall DVD-R5 VOBS Lum1x\n\nFormat                                   : AVI\nFormat/Info                              : Audio Video Interleave\nFile size                                : 1.37 GiB\nDuration                                 : 1h 53mn\nOverall bit rate                         : 1 731 Kbps\nWriting application                      : VirtualDubMod 1.5.10.2 (build 2542/release)\nWriting library                          : VirtualDubMod build 2542/release\n\nVideo\nID                                       : 0\nFormat                                   : MPEG-4 Visual\nFormat profile                           : Advanced Simple@L5\nFormat settings, BVOP                    : 2\nFormat settings, QPel                    : No\nFormat settings, GMC                     : No warppoints\nFormat settings, Matrix                  : Default (MPEG)\nCodec ID                                 : XVID\nCodec ID/Hint                            : XviD\nDuration                                 : 1h 53mn\nBit rate                                 : 1 337 Kbps\nWidth                                    : 720 pixels\nHeight                                   : 304 pixels\nDisplay aspect ratio                     : 2.35:1\nFrame rate                               : 25.000 fps\nColor space                              : YUV\nChroma subsampling                       : 4:2:0\nBit depth                                : 8 bits\nScan type                                : Progressive\nCompression mode                         : Lossy\nBits/(Pixel*Frame)                       : 0.244\nStream size                              : 1.06 GiB (77%)\nWriting library                          : XviD 1.2.1 (UTC 2008-12-04)\n\nAudio\nID                                       : 1\nFormat                                   : AC-3\nFormat/Info                              : Audio Coding 3\nMode extension                           : CM (complete main)\nFormat settings, Endianness              : Big\nCodec ID                                 : 2000\nDuration                                 : 1h 53mn\nBit rate mode                            : Constant\nBit rate                                 : 384 Kbps\nChannel(s)                               : 6 channels\nChannel positions                        : Front: L C R, Side: L R, LFE\nSampling rate                            : 48.0 KHz\nBit depth                                : 16 bits\nCompression mode                         : Lossy\nStream size                              : 312 MiB (22%)\nAlignment                                : Split accross interleaves\nInterleave, duration                     : 40 ms (1.00 video frame)\nInterleave, preload duration             : 500 ms\n\n\nPoster:\n\n &lt;a href=&quot;\nhttp://imgon.net/di-A2LI.jpg&quot; rel=&quot;nofollow&quot; target=&quot;_NEW&quot;&gt;\nhttp://imgon.net/di-A2LI.jpg&lt;/a&gt;\n\n\nScreenshots:\n\n &lt;a href=&quot;\nhttp://imgon.net/di-QM5U.jpg&quot; rel=&quot;nofollow&quot; target=&quot;_NEW&quot;&gt;\nhttp://imgon.net/di-QM5U.jpg&lt;/a&gt;\n\n &lt;a href=&quot;\nhttp://imgon.net/di-0QAD.jpg&quot; rel=&quot;nofollow&quot; target=&quot;_NEW&quot;&gt;\nhttp://imgon.net/di-0QAD.jpg&lt;/a&gt;\n\n &lt;a href=&quot;\nhttp://imgon.net/di-R14E.jpg&quot; rel=&quot;nofollow&quot; target=&quot;_NEW&quot;&gt;\nhttp://imgon.net/di-R14E.jpg&lt;/a&gt;\n\n\nENJOY!","torrent":{"xt":"urn:btih:65ab8de71dfc4fc4b07ea85ffc2bd88a02929c26","amp;dn":"Total+Recall+2012+DVDRip+XviD+Lum1x","amp;tr":["udp%3A%2F%2Ftracker.openbittorrent.com%3A80","udp%3A%2F%2Fopen.demonii.com%3A1337","udp%3A%2F%2Ftracker.coppersurfer.tk%3A6969","udp%3A%2F%2Fexodus.desync.com%3A6969"],"infoHash":"65ab8de71dfc4fc4b07ea85ffc2bd88a02929c26","infoHashBuffer":{"type":"Buffer","data":[101,171,141,231,29,252,79,196,176,126,168,95,252,43,216,138,2,146,156,38]},"announce":[],"urlList":[]}}